<svg width="189" height="36" viewBox="0 0 189 36" fill="none" xmlns="http://www.w3.org/2000/svg">
<g clip-path="url(#clip0_1501_17335)">
<path d="M189 0H0V36H189V0Z" fill="white"/>
<path d="M63.0131 21.5924C63.0131 28.7848 68.3108 34.5978 75.49 34.5978C80.3916 34.5978 84.204 31.7406 85.7883 27.9966L85.9864 34.1052H90.0463V9.17805H85.9864L85.7883 15.2867C84.204 11.5427 80.3916 8.68542 75.49 8.68542C68.3108 8.68542 63.0131 14.4985 63.0131 21.5924ZM67.2711 21.5924C67.2711 16.7646 71.232 12.6757 76.3317 12.6757C81.4809 12.6757 85.3427 16.7646 85.3427 21.5924C85.3427 26.5187 81.4809 30.6075 76.3317 30.6075C71.232 30.6075 67.2711 26.5187 67.2711 21.5924ZM115.094 9.17805V21.888H115.044C115.044 25.4349 112.668 30.6075 106.726 30.6075C102.865 30.6075 100.191 28.2429 100.191 21.9865V9.17805H95.9329V23.76C95.9329 30.8046 99.4482 34.5978 105.241 34.5978C109.598 34.5978 112.816 32.4303 115.143 29.7208L115.292 34.1052H119.302V9.17805H115.094ZM144.587 9.17805L136.269 29.7208L127.952 9.17805H123.198L133.843 34.1052H138.695L149.34 9.17805H144.587ZM155.533 5.03995C156.919 5.03995 157.959 3.95615 157.959 2.62605C157.959 1.24668 156.919 0.212158 155.533 0.212158C154.196 0.212158 153.107 1.24668 153.107 2.62605C153.107 3.95615 154.196 5.03995 155.533 5.03995ZM157.662 9.17805H153.404V34.1052H157.662V9.17805ZM162.798 34.1052H168.046L175.572 24.5482L183.048 34.1052H188.296L178.147 21.6416L188.296 9.17805H183.048L175.572 18.7351L168.046 9.17805H162.798L172.948 21.6416L162.798 34.1052Z" fill="black"/>
<path d="M16.1865 35.9999L-0.952026 9.47363H30.709C31.839 9.47363 32.5214 10.7174 31.9104 11.6631L16.1865 35.9999Z" fill="url(#paint0_linear_1501_17335)"/>
<path d="M52.3679 35.9999H20.7068C19.5768 35.9999 18.8944 34.7562 19.5054 33.8104L35.2293 9.47363L52.3679 35.9999Z" fill="url(#paint1_linear_1501_17335)"/>
</g>
<defs>
<linearGradient id="paint0_linear_1501_17335" x1="33.3251" y1="9.47363" x2="10.1642" y2="23.0215" gradientUnits="userSpaceOnUse">
<stop offset="0.195206"/>
<stop offset="1" stop-opacity="0"/>
</linearGradient>
<linearGradient id="paint1_linear_1501_17335" x1="18.0908" y1="35.9999" x2="40.4913" y2="21.6606" gradientUnits="userSpaceOnUse">
<stop offset="0.237201"/>
<stop offset="1" stop-opacity="0"/>
</linearGradient>
<clipPath id="clip0_1501_17335">
<rect width="189" height="36" fill="white"/>
</clipPath>
</defs>
</svg>
